<?xml version="1.0" standalone="no"?>
<!DOCTYPE svg PUBLIC "-//W3C//DTD SVG 20010904//EN"
 "http://www.w3.org/TR/2001/REC-SVG-20010904/DTD/svg10.dtd">
<svg version="1.0" xmlns="http://www.w3.org/2000/svg"
 width="1113.000000pt" height="1113.000000pt" viewBox="0 0 1113.000000 1113.000000"
 preserveAspectRatio="xMidYMid meet">
<metadata>
Created by potrace 1.14, written by Peter Selinger 2001-2017
</metadata>
<g transform="translate(0.000000,1113.000000) scale(0.100000,-0.100000)"
fill="#000000" stroke="none">
<path d="M1887 11118 c-110 -23 -177 -94 -310 -328 -79 -140 -158 -332 -182
-446 -2 -10 -10 -50 -19 -89 -8 -38 -17 -90 -21 -115 -3 -25 -8 -52 -10 -60
-4 -18 -15 -98 -20 -160 -3 -25 -7 -65 -11 -90 -7 -52 -10 -186 -19 -1050 -6
-545 -12 -1051 -15 -1250 0 -54 -1 -55 -50 -90 -28 -19 -69 -62 -92 -95 -23
-33 -44 -62 -47 -65 -3 -3 -18 -21 -32 -40 -15 -19 -39 -48 -53 -65 -15 -16
-40 -50 -56 -75 -16 -25 -33 -49 -38 -55 -10 -13 -104 -204 -135 -276 l-24
-56 -56 2 -57 1 5 -415 c6 -505 14 -1176 20 -1721 3 -222 9 -407 13 -411 4 -3
48 -20 97 -38 100 -37 79 -18 380 -337 229 -242 286 -298 500 -483 27 -23 183
-161 211 -186 6 -5 42 -37 79 -70 94 -82 102 -91 142 -162 71 -128 77 -221 17
-290 -11 -11 -35 -41 -54 -64 -32 -40 -221 -258 -262 -303 -22 -24 -20 -10
-22 -195 l-1 -155 -80 -60 c-328 -250 -692 -503 -873 -606 -96 -55 -285 -182
-457 -307 -22 -16 -72 -53 -112 -82 l-72 -52 32 -27 c416 -350 1014 -639 1522
-737 71 -13 507 -15 3860 -12 2079 1 3791 5 3805 9 14 4 50 13 80 19 82 16
319 88 399 121 14 6 28 12 31 12 21 4 149 61 270 119 245 117 461 251 678 420
93 73 101 81 85 93 -18 14 -144 102 -236 166 -27 18 -54 38 -61 43 -6 6 -19
15 -28 20 -9 6 -50 33 -91 62 -40 28 -100 66 -133 84 -32 17 -78 45 -102 60
-24 16 -46 29 -49 29 -3 0 -21 11 -39 25 -18 14 -35 25 -38 25 -16 0 -477 326
-484 342 -2 5 -8 8 -14 8 -6 0 -22 10 -37 23 -15 12 -40 31 -55 42 -29 21 -93
69 -111 83 -5 4 -32 23 -58 42 -26 19 -46 39 -43 46 14 35 28 183 23 246 -11
168 -47 220 -224 328 -160 96 -161 98 -158 290 2 172 14 211 81 265 24 20 49
42 56 48 7 7 74 64 148 127 74 63 137 117 140 120 3 3 32 28 65 55 61 51 109
92 129 110 6 6 57 50 114 99 96 83 102 90 102 126 0 37 9 48 178 217 156 157
236 243 323 347 13 16 31 36 40 45 8 9 35 41 60 71 l45 55 -2 1130 c-1 622 -2
1133 -3 1136 0 3 -22 5 -48 4 -62 -2 -70 1 -78 32 -19 76 -160 336 -224 413
-72 87 -135 170 -153 200 -12 20 -46 53 -77 74 l-56 39 -1 101 c-1 56 -4 373
-8 706 -4 333 -9 785 -11 1005 -4 374 -9 535 -20 595 -2 14 -6 48 -9 75 -8 77
-26 197 -30 204 -2 3 -7 31 -11 61 -4 30 -11 63 -16 73 -5 9 -8 17 -5 17 6 0
-27 123 -55 205 -46 133 -213 432 -290 516 -58 64 -155 101 -239 92 -19 -2
-118 -31 -220 -65 -150 -49 -207 -74 -303 -129 -65 -38 -120 -69 -121 -69 -2
0 -59 -37 -128 -83 -159 -106 -279 -168 -393 -202 -229 -68 -543 -186 -585
-220 -102 -82 -317 -204 -387 -219 -82 -18 -215 -9 -409 28 -12 3 -39 7 -60
10 -22 4 -82 13 -134 22 -52 8 -108 17 -125 19 -16 3 -41 7 -55 10 -23 5 -88
15 -197 31 -24 4 -43 9 -44 13 0 3 -3 26 -5 51 -2 25 -13 56 -23 70 l-18 25
-371 3 c-365 2 -371 2 -390 -19 -20 -21 -32 -61 -32 -109 0 -14 -6 -27 -12
-27 -7 0 -29 -4 -48 -7 -73 -13 -86 -15 -125 -21 -22 -3 -80 -12 -130 -21 -49
-8 -103 -17 -120 -20 -16 -2 -41 -6 -55 -9 -14 -2 -41 -7 -60 -9 -19 -3 -44
-7 -55 -10 -11 -2 -45 -7 -75 -12 -30 -4 -57 -8 -60 -9 -90 -20 -206 -25 -267
-13 -63 12 -201 79 -283 136 -101 71 -164 112 -172 112 -4 0 -36 13 -70 28
-64 29 -129 56 -138 58 -3 0 -16 5 -30 11 -67 28 -179 65 -267 88 -120 32
-259 101 -423 209 -242 160 -358 219 -556 285 -189 62 -243 72 -307 59z"/>
</g>
</svg>
